HIERARCHY
ROOT Hips
{
	OFFSET 55.042400 -13.094914 85.520699
	CHANNELS 6 Xposition Yposition Zposition Xrotation Yrotation Zrotation
	JOINT spine
	{
		OFFSET 0.000000 -0.367607 6.392601
		CHANNELS 3 Xrotation Yrotation Zrotation
		JOINT spine1
		{
			OFFSET 0.000000 -0.000001 9.176109
			CHANNELS 3 Xrotation Yrotation Zrotation
			JOINT spine2
			{
				OFFSET 0.000000 -0.000002 8.792381
				CHANNELS 3 Xrotation Yrotation Zrotation
				JOINT Neck
				{
					OFFSET 0.000000 -1.076243 22.573700
					CHANNELS 3 Xrotation Yrotation Zrotation
					JOINT Head
					{
						OFFSET 0.000000 -0.000001 6.820114
						CHANNELS 3 Xrotation Yrotation Zrotation
						End Site
						{
							OFFSET 0.000000 5.444267 16.508499
						}
					}
				}
				JOINT RightShoulder
				{
					OFFSET -3.702209 0.515507 9.495087
					CHANNELS 3 Xrotation Yrotation Zrotation
					JOINT RightArm
					{
						OFFSET 0.000000 -0.000003 12.453705
						CHANNELS 3 Xrotation Yrotation Zrotation
						JOINT RightArmRoll
						{
							OFFSET 0.000000 -0.000001 6.286865
							CHANNELS 3 Xrotation Yrotation Zrotation
							JOINT RightForeArm
							{
								OFFSET 0.000000 -0.000003 18.311401
								CHANNELS 3 Xrotation Yrotation Zrotation
								JOINT RightForeArmRoll
								{
									OFFSET 0.000000 -0.000001 7.054825
									CHANNELS 3 Xrotation Yrotation Zrotation
									JOINT RightHand
									{
										OFFSET 0.000000 -0.000002 14.157501
										CHANNELS 3 Xrotation Yrotation Zrotation
										End Site
										{
											OFFSET 0.000000 0.000000 0.100006
										}
									}
								}
							}
						}
					}
				}
				JOINT LeftShoulder
				{
					OFFSET 3.702209 0.515507 9.495087
					CHANNELS 3 Xrotation Yrotation Zrotation
					JOINT LeftArm
					{
						OFFSET 0.000000 -0.000003 12.453705
						CHANNELS 3 Xrotation Yrotation Zrotation
						JOINT LeftArmRoll
						{
							OFFSET 0.000000 -0.000001 6.286865
							CHANNELS 3 Xrotation Yrotation Zrotation
							JOINT LeftForeArm
							{
								OFFSET 0.000000 -0.000003 18.311401
								CHANNELS 3 Xrotation Yrotation Zrotation
								JOINT LeftForeArmRoll
								{
									OFFSET 0.000000 -0.000001 7.054825
									CHANNELS 3 Xrotation Yrotation Zrotation
									JOINT LeftHand
									{
										OFFSET 0.000000 -0.000002 14.157501
										CHANNELS 3 Xrotation Yrotation Zrotation
										End Site
										{
											OFFSET 0.000000 0.000000 0.100006
										}
									}
								}
							}
						}
					}
				}
			}
		}
	}
	JOINT RightUpLeg
	{
		OFFSET -5.666161 0.871611 -1.039032
		CHANNELS 3 Xrotation Yrotation Zrotation
		JOINT RightUpLegRoll
		{
			OFFSET 0.000000 -0.000003 16.600502
			CHANNELS 3 Xrotation Yrotation Zrotation
			JOINT RightLeg
			{
				OFFSET 0.000000 0.000003 -20.557198
				CHANNELS 3 Xrotation Yrotation Zrotation
				JOINT RightLegRoll
				{
					OFFSET 0.000000 -0.000003 20.624397
					CHANNELS 3 Xrotation Yrotation Zrotation
					JOINT RightFoot
					{
						OFFSET 0.000000 -0.000003 17.166397
						CHANNELS 3 Xrotation Yrotation Zrotation
						JOINT RightToeBase
						{
							OFFSET 0.000000 -0.000003 14.350204
							CHANNELS 3 Xrotation Yrotation Zrotation
							End Site
							{
								OFFSET 0.006081 0.801059 6.949707
							}
						}
					}
				}
			}
		}
	}
	JOINT LeftUpLeg
	{
		OFFSET 5.666161 0.871611 -1.039032
		CHANNELS 3 Xrotation Yrotation Zrotation
		JOINT LeftUpLegRoll
		{
			OFFSET 0.000000 -0.000003 16.600601
			CHANNELS 3 Xrotation Yrotation Zrotation
			JOINT LeftLeg
			{
				OFFSET 0.000000 -0.000004 20.557098
				CHANNELS 3 Xrotation Yrotation Zrotation
				JOINT LeftLegRoll
				{
					OFFSET 0.000000 -0.000003 20.815102
					CHANNELS 3 Xrotation Yrotation Zrotation
					JOINT LeftFoot
					{
						OFFSET 0.000000 -0.000003 16.975708
						CHANNELS 3 Xrotation Yrotation Zrotation
						JOINT LeftToeBase
						{
							OFFSET 0.000000 -0.000003 14.350204
							CHANNELS 3 Xrotation Yrotation Zrotation
							End Site
							{
								OFFSET -0.027260 0.801060 6.949707
							}
						}
					}
				}
			}
		}
	}
}
MOTION
Frames: 8
Frame Time: 0.041667
56.374996 -9.918564 84.998604 0.490564 -1.813973 -11.450971 -0.882136 -0.028973 0.360456 2.238781 -0.059964 0.720705 3.883801 -0.051326 0.721367 25.559611 24.872422 -15.992420 8.734204 -19.757318 -12.607006 13.406260 -25.567227 24.080623 -72.094518 -141.485169 -55.490465 0.000003 0.000037 -0.000005 104.118407 -1.123108 0.329075 0.000001 -0.000000 -2.999992 -5.000212 -7.998767 0.000162 -22.936339 61.368744 27.083244 -47.764828 109.999336 94.106292 -0.000002 -0.000000 0.000006 124.489104 -10.293072 35.175795 0.000001 0.000010 2.999978 -5.000254 7.998858 -0.000126 -5.914177 -173.351253 1.793504 -179.999991 0.000006 -1.031995 162.569608 -3.080065 -1.173476 -0.000004 -0.000002 0.417865 75.714040 6.661492 2.301236 25.769424 -7.354245 0.473881 -8.926918 175.679774 2.818547 -0.000005 -0.000004 -0.851038 -9.055680 0.027679 0.704832 -0.000003 0.000003 0.220550 66.041092 -5.681397 -5.233934 25.458876 7.355613 -0.002861 
56.379795 -9.914042 84.995308 0.471445 -1.843627 -11.341032 -0.868371 -0.035335 0.364425 2.266361 -0.072618 0.728606 3.911372 -0.063885 0.729419 25.464270 25.187335 -16.068257 8.877438 -20.033833 -12.629465 13.457868 -24.981953 24.342574 -72.696504 -141.961056 -55.107705 0.000002 0.000038 -0.000006 103.239409 -1.252886 0.619409 0.000001 -0.000000 -2.999990 -5.000210 -7.998766 0.000162 -23.373910 61.391284 27.593542 -47.763561 109.937605 94.271029 -0.000002 -0.000000 0.000007 124.464133 -10.320566 35.259892 -0.000001 0.000007 2.999975 -5.000248 7.998863 -0.000126 -5.912441 -173.312444 1.818333 -179.999991 0.000005 -1.030998 162.512904 -3.087697 -1.177214 -0.000004 -0.000002 0.418956 75.748587 6.660583 2.301781 25.771248 -7.354250 0.476940 -8.945854 175.731355 2.850180 -0.000004 -0.000005 -0.850999 -9.064319 0.018735 0.703111 -0.000003 0.000003 0.219773 66.043353 -5.683664 -5.226800 25.458873 7.355615 -0.002861 
56.385796 -9.911673 84.994308 0.452185 -1.874092 -11.237013 -0.854088 -0.041988 0.368036 2.294972 -0.085841 0.735790 3.939983 -0.077021 0.736764 25.359688 25.513863 -16.139093 9.026773 -20.316995 -12.645892 13.498428 -24.383152 24.596992 -73.289856 -142.442912 -54.715641 0.000000 0.000035 -0.000006 102.329163 -1.370292 0.886014 0.000003 -0.000001 -2.999990 -5.000212 -7.998760 0.000165 -23.824700 61.414063 28.118815 -47.771497 109.884678 94.432966 -0.000001 -0.000001 0.000005 124.438807 -10.344821 35.335987 -0.000003 0.000008 2.999979 -5.000251 7.998858 -0.000126 -5.912232 -173.272638 1.843757 -179.999991 0.000005 -1.030998 162.456787 -3.095330 -1.180955 -0.000003 -0.000003 0.419985 75.781844 6.659721 2.302308 25.772863 -7.354254 0.479574 -8.962420 175.782923 2.882493 -0.000005 -0.000004 -0.850966 -9.070268 0.009042 0.701318 -0.000003 0.000003 0.219143 66.044282 -5.686399 -5.218834 25.458876 7.355613 -0.002861 
56.370697 -9.895485 84.987289 0.432886 -1.905465 -11.139206 -0.839264 -0.048981 0.371312 2.324653 -0.099737 0.742306 3.969675 -0.090838 0.743443 25.244844 25.853663 -16.204595 9.182992 -20.608523 -12.655809 13.527061 -23.769405 24.843252 -73.872983 -142.931189 -54.312018 0.000003 0.000036 -0.000007 101.386030 -1.473368 1.126885 0.000002 0.000002 -2.999989 -5.000211 -7.998765 0.000165 -24.290263 61.436848 28.660918 -47.786220 109.842474 94.589978 -0.000002 0.000001 0.000006 124.412866 -10.367791 35.400604 -0.000002 0.000011 2.999980 -5.000252 7.998861 -0.000126 -5.913607 -173.230891 1.869760 -179.999991 0.000005 -1.030001 162.401544 -3.103922 -1.184946 -0.000003 -0.000003 0.420937 75.813597 6.658923 2.302831 25.774178 -7.354253 0.481731 -8.976320 175.836445 2.915313 -0.000005 -0.000005 -0.850933 -9.072819 -0.001487 0.699441 -0.000003 0.000003 0.218698 66.043462 -5.689651 -5.209969 25.458874 7.355615 -0.002861 
56.377598 -9.885924 84.986298 0.412660 -1.938069 -11.047641 -0.823578 -0.056205 0.374012 2.356074 -0.114082 0.747671 4.001086 -0.105117 0.748981 25.118063 26.208139 -16.263777 9.347978 -20.908461 -12.658680 13.547492 -23.141046 25.086462 -74.449158 -143.433003 -53.886648 0.000000 0.000036 -0.000007 100.411554 -1.560012 1.355139 -0.000000 0.000002 -2.999987 -5.000210 -7.998765 0.000164 -24.771158 61.459804 29.220673 -47.817611 109.807490 94.746096 -0.000002 0.000000 0.000006 124.386542 -10.387020 35.454969 0.000001 0.000011 2.999983 -5.000254 7.998858 -0.000126 -5.916612 -173.186140 1.896738 -179.999991 0.000005 -1.030000 162.345619 -3.111542 -1.188706 -0.000005 -0.000003 0.421828 75.844504 6.658197 2.303316 25.775286 -7.354245 0.483383 -8.987465 175.889911 2.949116 -0.000004 -0.000005 -0.850897 -9.073257 -0.012858 0.697496 -0.000003 0.000003 0.218390 66.041652 -5.693508 -5.199981 25.458874 7.355616 -0.002861 
56.379997 -9.872833 84.987305 0.390732 -1.972004 -10.962254 -0.806799 -0.063516 0.375934 2.389676 -0.128592 0.751495 4.034689 -0.119581 0.752977 24.979050 26.576778 -16.315985 9.522336 -21.215341 -12.654589 13.563605 -22.499693 25.331123 -75.021637 -143.953149 -53.431303 -0.000002 0.000037 -0.000007 99.408226 -1.630991 1.582219 0.000001 -0.000001 -2.999991 -5.000209 -7.998758 0.000164 -25.265443 61.483047 29.796086 -47.865112 109.778140 94.895875 -0.000001 0.000000 0.000006 124.360096 -10.401850 35.497986 -0.000001 0.000010 2.999979 -5.000254 7.998858 -0.000125 -5.921168 -173.139449 1.925043 -179.999991 0.000006 -1.029004 162.287576 -3.120067 -1.191889 -0.000003 -0.000003 0.422665 75.875130 6.657550 2.303827 25.776097 -7.354246 0.484509 -8.995999 175.946315 2.983408 -0.000005 -0.000005 -0.850865 -9.073371 -0.024967 0.695520 -0.000003 0.000003 0.218153 66.040034 -5.697786 -5.189176 25.458880 7.355614 -0.002861 
56.375195 -9.849622 84.983406 0.367386 -2.007068 -10.882832 -0.789079 -0.070924 0.377161 2.425167 -0.143285 0.753933 4.070180 -0.134244 0.755591 24.829240 26.957756 -16.361307 9.704953 -21.527889 -12.643782 13.575036 -21.846430 25.576343 -75.592893 -144.486737 -52.953275 -0.000001 0.000037 -0.000006 98.375775 -1.688106 1.806619 0.000001 -0.000000 -2.999991 -5.000212 -7.998764 0.000164 -25.771791 61.506154 30.385575 -47.930187 109.753538 95.042936 -0.000001 0.000002 0.000004 124.333267 -10.413528 35.527909 -0.000001 0.000012 2.999981 -5.000250 7.998862 -0.000126 -5.927240 -173.089793 1.954313 -179.999991 0.000006 -1.029003 162.227935 -3.128554 -1.195191 -0.000003 -0.000003 0.423457 75.905327 6.656929 2.304366 25.776605 -7.354250 0.485150 -9.002218 176.002678 3.018493 -0.000006 -0.000005 -0.850830 -9.073181 -0.037750 0.693522 -0.000003 0.000004 0.217979 66.038736 -5.702551 -5.177357 25.458876 7.355616 -0.002861 
56.380096 -9.839444 84.980606 0.342915 -2.043053 -10.809175 -0.770564 -0.078435 0.377778 2.462249 -0.158176 0.755149 4.107254 -0.149120 0.756987 24.669750 27.349401 -16.399762 9.894662 -21.844724 -12.626439 13.581315 -21.182478 25.821236 -76.163289 -145.029819 -52.456891 0.000000 0.000036 -0.000004 97.314179 -1.733050 2.023779 -0.000002 0.000001 -2.999991 -5.000207 -7.998765 0.000166 -26.288415 61.528953 30.987182 -48.013911 109.732685 95.190871 -0.000002 0.000001 0.000005 124.306315 -10.422158 35.546903 -0.000000 0.000009 2.999977 -5.000253 7.998864 -0.000120 -5.934792 -173.039141 1.984458 -179.999991 0.000005 -1.028007 162.166968 -3.137960 -1.198875 -0.000003 -0.000003 0.424201 75.935011 6.656355 2.304944 25.776902 -7.354238 0.485354 -9.006340 176.060024 3.054060 -0.000006 -0.000005 -0.850797 -9.072713 -0.051141 0.691505 -0.000003 0.000002 0.217856 66.037718 -5.707644 -5.164893 25.458874 7.355617 -0.002861 
